<svg width="38" height="50" viewBox="0 0 38 50" fill="none" xmlns="http://www.w3.org/2000/svg">
<path d="M8.6875 10.5664V14.0664H6.10938C4.51393 14.0664 2.98383 14.7117 1.85569 15.8604C0.727538 17.009 0.09375 18.567 0.09375 20.1914V42.9414C0.09375 44.5659 0.727538 46.1238 1.85569 47.2724C2.98383 48.4211 4.51393 49.0664 6.10938 49.0664H31.8906C33.4861 49.0664 35.0162 48.4211 36.1443 47.2724C37.2725 46.1238 37.9062 44.5659 37.9062 42.9414V20.1914C37.9062 18.567 37.2725 17.009 36.1443 15.8604C35.0162 14.7117 33.4861 14.0664 31.8906 14.0664H29.3125V10.5664C29.3125 7.78163 28.226 5.11092 26.292 3.14178C24.3581 1.17265 21.735 0.0664063 19 0.0664062C16.265 0.0664063 13.6419 1.17265 11.708 3.14178C9.77399 5.11092 8.6875 7.78163 8.6875 10.5664ZM19 3.56641C20.8234 3.56641 22.572 4.3039 23.8614 5.61666C25.1507 6.92941 25.875 8.70989 25.875 10.5664V14.0664H12.125V10.5664C12.125 8.70989 12.8493 6.92941 14.1386 5.61666C15.428 4.3039 17.1766 3.56641 19 3.56641ZM19 35.0664C18.0883 35.0664 17.214 34.6977 16.5693 34.0413C15.9247 33.3849 15.5625 32.4947 15.5625 31.5664C15.5625 30.6381 15.9247 29.7479 16.5693 29.0915C17.214 28.4352 18.0883 28.0664 19 28.0664C19.9117 28.0664 20.786 28.4352 21.4307 29.0915C22.0753 29.7479 22.4375 30.6381 22.4375 31.5664C22.4375 32.4947 22.0753 33.3849 21.4307 34.0413C20.786 34.6977 19.9117 35.0664 19 35.0664Z" fill="url(#paint0_linear_809_111213)"/>
<defs>
<linearGradient id="paint0_linear_809_111213" x1="19" y1="24.5664" x2="47.1172" y2="50.2039" gradientUnits="userSpaceOnUse">
<stop stop-color="#273896"/>
<stop offset="1" stop-color="#C71C8E"/>
</linearGradient>
</defs>
</svg>
