<svg width="38" height="59" viewBox="0 0 38 59" fill="none" xmlns="http://www.w3.org/2000/svg">
<path d="M33.1516 0.554199H4.37381C3.28347 0.554199 2.2378 0.987333 1.46681 1.75832C0.69583 2.5293 0.262695 3.57498 0.262695 4.66531V53.9986C0.262695 55.089 0.69583 56.1347 1.46681 56.9056C2.2378 57.6766 3.28347 58.1098 4.37381 58.1098H33.1516C34.2419 58.1098 35.2876 57.6766 36.0586 56.9056C36.8296 56.1347 37.2627 55.089 37.2627 53.9986V4.66531C37.2627 3.57498 36.8296 2.5293 36.0586 1.75832C35.2876 0.987333 34.2419 0.554199 33.1516 0.554199ZM20.8183 53.9986H16.7071V49.8875H20.8183V53.9986ZM4.37381 45.7764V4.66531H33.1516V45.7764H4.37381Z" fill="url(#paint0_linear_809_111599)"/>
<defs>
<linearGradient id="paint0_linear_809_111599" x1="18.7626" y1="29.3319" x2="50.7145" y2="53.6022" gradientUnits="userSpaceOnUse">
<stop stop-color="#273896"/>
<stop offset="1" stop-color="#C71C8E"/>
</linearGradient>
</defs>
</svg>
